<svg width="37" height="36" viewBox="0 0 37 36" fill="none" xmlns="http://www.w3.org/2000/svg">
<path d="M33.125 0.84388H3.875C3.21134 0.837126 2.5721 1.09392 2.09755 1.55793C1.62301 2.02193 1.35191 2.65523 1.34375 3.31888V32.687C1.35339 33.3497 1.62513 33.9815 2.09952 34.4443C2.5739 34.9071 3.2123 35.1631 3.875 35.1564H33.125C33.7887 35.1616 34.4275 34.904 34.9018 34.4397C35.3761 33.9754 35.6474 33.3422 35.6562 32.6786V3.31044C35.6444 2.64874 35.3719 2.01846 34.8979 1.55658C34.4239 1.09471 33.7868 0.838586 33.125 0.84388Z" fill="#0076B2"/>
<path d="M6.42307 13.7051H11.5165V30.0935H6.42307V13.7051ZM8.97119 5.54883C9.55539 5.54883 10.1265 5.7221 10.6122 6.04672C11.0979 6.37133 11.4764 6.83271 11.6998 7.37249C11.9232 7.91227 11.9815 8.50619 11.8674 9.07911C11.7532 9.65204 11.4717 10.1782 11.0584 10.5911C10.6451 11.004 10.1186 11.285 9.54559 11.3987C8.97256 11.5123 8.37869 11.4534 7.83913 11.2295C7.29957 11.0055 6.83855 10.6266 6.51439 10.1406C6.19024 9.65457 6.01751 9.08333 6.01807 8.49914C6.01881 7.71641 6.33027 6.96599 6.88401 6.41278C7.43775 5.85957 8.18846 5.54883 8.97119 5.54883ZM14.7115 13.7051H19.594V15.9551H19.6615C20.3421 14.667 22.0015 13.3085 24.4793 13.3085C29.6374 13.2973 30.5937 16.692 30.5937 21.0935V30.0935H25.5003V22.1201C25.5003 20.2216 25.4665 17.7776 22.8537 17.7776C20.2409 17.7776 19.7965 19.8476 19.7965 21.9963V30.0935H14.7115V13.7051Z" fill="white"/>
</svg>
