<svg width="45" height="36" viewBox="0 0 45 36" fill="none" xmlns="http://www.w3.org/2000/svg">
<g clip-path="url(#clip0_100_380)">
<path d="M44.0979 4.38375C42.4467 5.11534 40.6953 5.5955 38.9018 5.80824C40.7699 4.68863 42.2042 2.91567 42.8796 0.803209C41.1038 1.85695 39.1609 2.59941 37.1349 2.99852C35.4846 1.24038 33.1336 0.141602 30.5314 0.141602C25.5352 0.141602 21.4844 4.1922 21.4844 9.18811C21.4844 9.89726 21.5645 10.5876 21.7186 11.2499C14.2 10.8725 7.53395 7.27098 3.07184 1.7976C2.29328 3.13374 1.84715 4.68794 1.84715 6.34566C1.84715 9.48438 3.44442 12.2533 5.87175 13.8757C4.43509 13.8308 3.03004 13.4427 1.77395 12.744C1.77349 12.7819 1.77332 12.8199 1.77343 12.8579C1.77343 17.2411 4.89182 20.8976 9.03027 21.7287C7.69807 22.0909 6.3007 22.144 4.94488 21.8837C6.09602 25.4779 9.43713 28.0933 13.3957 28.1665C10.2996 30.5928 6.39866 32.0392 2.1603 32.0392C1.42997 32.0392 0.709968 31.9963 0.00219727 31.9127C4.00578 34.4796 8.76105 35.9773 13.8699 35.9773C30.5104 35.9773 39.6098 22.192 39.6098 10.2373C39.6098 9.84489 39.6011 9.45475 39.5836 9.06685C41.3546 7.78635 42.8832 6.20053 44.0979 4.38375Z" fill="#55ACEE"/>
</g>
<defs>
<clipPath id="clip0_100_380">
<rect width="44.1" height="36" fill="white"/>
</clipPath>
</defs>
</svg>
